<?xml version="1.0" encoding="utf-8"?>
<!-- Generator: Adobe Illustrator 22.0.1, SVG Export Plug-In . SVG Version: 6.00 Build 0)  -->
<svg version="1.1" id="Layer_1" xmlns="http://www.w3.org/2000/svg" xmlns:xlink="http://www.w3.org/1999/xlink" x="0px" y="0px"
	 viewBox="0 0 4084 1279.9" style="enable-background:new 0 0 4084 1279.9;" xml:space="preserve">
<style type="text/css">
	.st0{fill:#48546a;}
	.st1{clip-path:url(#SVGID_2_);fill:#48546a;}
	.st2{opacity:0.7;}
	.st3{clip-path:url(#SVGID_4_);fill:#4A556A;}
	.st4{fill:url(#SVGID_5_);}
	.st5{fill:url(#SVGID_6_);}
	.st6{fill:url(#SVGID_7_);}
	.st7{clip-path:url(#SVGID_9_);}
	.st8{clip-path:url(#SVGID_11_);fill:url(#SVGID_12_);}
	.st9{clip-path:url(#SVGID_14_);}
	.st10{clip-path:url(#SVGID_16_);fill:url(#SVGID_17_);}
	.st11{clip-path:url(#SVGID_19_);}
	.st12{clip-path:url(#SVGID_21_);fill:url(#SVGID_22_);}
	.st13{fill:#ccd234;}
</style>
<path class="st0" d="M648.2,306.9H845c114.9,0,184.3,68.1,184.3,166.4v1.4c0,111.4-86.7,169.2-194.6,169.2h-80.5v144.4h-106V306.9z
	 M838.1,549.7c53,0,83.9-31.6,83.9-72.9v-1.4c0-47.5-33-72.9-86-72.9h-81.8v147.2L838.1,549.7L838.1,549.7z"/>
<path class="st0" d="M1050.6,682.4V681c0-80.5,61.2-117.6,148.6-117.6c37.1,0,64,6.2,90.1,15.1v-6.2c0-43.3-26.8-67.4-79.1-67.4
	c-39.9,0-68.1,7.6-101.8,19.9l-26.1-79.8c40.6-17.9,80.5-29.6,143.1-29.6c57.1,0,98.4,15.1,124.5,41.3
	c27.5,27.5,39.9,68.1,39.9,117.6v213.9h-101.1v-39.9c-25.4,28.2-60.5,46.8-111.4,46.8C1107.7,795.2,1050.6,755.3,1050.6,682.4
	 M1290.6,658.3v-18.6c-17.9-8.3-41.3-13.8-66.7-13.8c-44.7,0-72.2,17.9-72.2,50.9v1.4c0,28.2,23.4,44.7,57.1,44.7
	C1257.6,723,1290.6,696.2,1290.6,658.3"/>
<path class="st0" d="M1690.9,419.7h108.7l-141.7,377.6c-28.2,75-58.5,103.2-121.1,103.2c-37.8,0-66-9.6-92.9-25.4l35.1-75.7
	c13.8,8.3,30.9,14.4,44.7,14.4c17.9,0,27.5-5.5,36.5-24.1l-144.4-370h110.7l83.9,251L1690.9,419.7z"/>
<path class="st0" d="M1801.7,739.5l44.7-68.8c39.9,28.9,81.8,44,116.2,44c30.3,0,44-11,44-27.5v-1.3c0-22.7-35.8-30.3-76.3-42.6
	c-51.6-15.1-110-39.2-110-110.7v-1.4c0-75,60.5-116.9,134.8-116.9c46.8,0,97.7,15.8,137.6,42.6l-39.9,72.2
	c-36.5-21.3-72.9-34.4-99.7-34.4c-25.4,0-38.5,11-38.5,25.4v1.4c0,20.6,35.1,30.3,75,44c51.6,17.2,111.4,42,111.4,109.4v1.4
	c0,81.8-61.2,119-141,119C1908.3,795.2,1850.5,778,1801.7,739.5"/>
<path class="st0" d="M2169,683.8V509.1h-44v-89.4h44v-94.2h104.5v94.2h86.7v89.4h-86.7v157.5c0,24.1,10.3,35.8,33.7,35.8
	c19.3,0,36.5-4.8,51.6-13.1v83.9c-22,13.1-47.5,21.3-82.5,21.3C2212.3,794.5,2169,769.1,2169,683.8"/>
<path class="st0" d="M2398,682.4V681c0-80.5,61.2-117.6,148.6-117.6c37.1,0,64,6.2,90.1,15.1v-6.2c0-43.3-26.8-67.4-79.1-67.4
	c-39.9,0-68.1,7.6-101.8,19.9l-26.1-79.8c40.6-17.9,80.5-29.6,143.1-29.6c57.1,0,98.4,15.1,124.5,41.3
	c27.5,27.5,39.9,68.1,39.9,117.6v213.9H2636v-39.9c-25.4,28.2-60.5,46.8-111.4,46.8C2455.1,795.2,2398,755.3,2398,682.4 M2638,658.3
	v-18.6c-17.9-8.3-41.3-13.8-66.7-13.8c-44.7,0-72.2,17.9-72.2,50.9v1.4c0,28.2,23.4,44.7,57.1,44.7C2605,723,2638,696.2,2638,658.3"
	/>
<path class="st0" d="M2823.7,683.8V509.1h-44v-89.4h44v-94.2h104.5v94.2h86.7v89.4h-86.7v157.5c0,24.1,10.3,35.8,33.7,35.8
	c19.3,0,36.5-4.8,51.6-13.1v83.9c-22,13.1-47.5,21.3-82.5,21.3C2867.1,794.5,2823.7,769.1,2823.7,683.8"/>
<path class="st0" d="M3076.8,286.2h110v92.9h-110V286.2z M3079.6,419.7h104.5v368.7h-104.5V419.7z"/>
<path class="st0" d="M3247.4,606.1v-1.4c0-105.9,85.3-191.9,200.1-191.9c114.2,0,198.8,84.6,198.8,190.5v1.4
	c0,105.9-85.3,191.9-200.1,191.9C3332,796.6,3247.4,712,3247.4,606.1 M3543.1,606.1v-1.4c0-54.3-39.2-101.8-97-101.8
	c-59.8,0-95.6,46.1-95.6,100.4v1.4c0,54.3,39.2,101.8,97,101.8C3507.4,706.5,3543.1,660.4,3543.1,606.1"/>
<path class="st0" d="M3704.8,419.7h104.5V472c24.1-31,55-59.2,108-59.2c79.1,0,125.2,52.3,125.2,136.9v238.7H3938V582.7
	c0-49.5-23.4-75-63.3-75s-65.3,25.4-65.3,75v205.6h-104.5L3704.8,419.7L3704.8,419.7z"/>
<g>
	<g>
		<defs>
			<path id="SVGID_1_" d="M3762.1,1130.1l-1,0.2c-20,3.3-39.2,9.8-57.1,19.3c-31.8,14.4-9.7,50.6,15.2,36.3
				c29.3-17,61.2-27.5,97.1-25.7c23.4,1.7,24.5-27.6,5.2-30.2c-9.7-1.5-19.5-2.3-29.3-2.3
				C3782.1,1127.7,3772.1,1128.5,3762.1,1130.1 M3465.3,1046.3c-9.5,0-19.1,6.8-19.9,20.2c-1.9,33.9-10.6,66.2-31.7,95.3
				c-14.3,18.7,9.6,35.6,22.4,20.9c13.4-14.8,24.3-31.5,32.4-49.7l0.4-0.9c8.2-18.5,13.3-38.2,15.2-58.4
				C3486.9,1055.3,3476.2,1046.3,3465.3,1046.3L3465.3,1046.3 M1713,1008.7l-60.4,132.1l-59-132.1h-28.8l74.1,163l-27.2,59.3h28.5
				l101.3-222.3H1713z M2084.5,1030.6v-36.2h-60.3v189.1h60.3v-59.2c0-48.6,22.7-70.5,64.3-70.8l2.6-61.8c-0.6,0-1.2,0-1.8,0
				C2118.8,991.8,2098,1008,2084.5,1030.6 M2219.7,1089c0-29,19.2-49,45.6-49c24.5,0,46.3,20,46.3,49c0,29.4-21.8,49-46.3,49
				C2238.9,1138,2219.7,1118.4,2219.7,1089 M2160.6,1089c0,59.9,42.2,100.2,92.3,100.2c24.5,0,44.1-7.5,58.8-20.7v15.1h60.3V994.5
				h-60.3v15.1c-14.7-13.2-34.3-20.7-58.8-20.7C2202.8,988.8,2160.6,1029.5,2160.6,1089 M2719.7,1037.7c17.3,0,32.4,9.4,38,29.8h-78
				C2685.4,1048.3,2702.8,1037.7,2719.7,1037.7 M2619.5,1089c0,59.9,45.2,100.2,99.8,100.2c41.5,0,74.7-17.7,91.6-54.3l-54.2-11.2
				c-10.2,14.4-24.7,17.3-37.4,17.3c-20.3,0-35.8-13.9-40.7-36.5h138.6v-15.4c-1.1-61.8-44.1-100.2-97.6-100.2
				C2664.7,988.8,2619.5,1029.5,2619.5,1089 M3012.9,1020.8c-12.8-20.7-35.4-32-61.8-32c-24.5,0-43,8.7-55.8,23v-17.3H2835v189.1
				h60.3v-92.7c0-31.6,14.3-47.9,36.2-47.9c18.1,0,32,13.6,32,35v105.5h60.3v-92.6c0-31.6,14.7-47.9,36.9-47.9
				c17.7,0,31.6,13.6,31.6,35v105.5h59.9v-118.3c0-46-32-76.5-72.3-76.5C3050.5,988.8,3027.9,1001.2,3012.9,1020.8 M3270.2,1037.7
				c17.3,0,32.4,9.4,38.1,29.8h-78C3235.9,1048.3,3253.2,1037.7,3270.2,1037.7 M3170,1089c0,59.9,45.2,100.2,99.8,100.2
				c41.5,0,74.7-17.7,91.6-54.3l-54.2-11.2c-10.2,14.4-24.7,17.3-37.4,17.3c-20.4,0-35.8-13.9-40.7-36.5h138.6v-15.4
				c-1.1-61.8-44.1-100.2-97.6-100.2C3215.2,988.8,3170,1029.5,3170,1089 M3829.4,994.9c-2.9,9.9,2.8,20.2,12.7,23.1
				s20.7-2.8,23.6-12.7c1.2-4.2,0.8-8-0.2-12.2l0,0c0,4.9-4.5,8.9-9.4,8.9s-9.2-4-9.2-8.9s3.9-8.9,8.8-8.9c0.5,0,0.9,0.1,1.4,0.1
				c-1.4-0.9-2.9-1.6-4.5-2.1c-1.7-0.5-3.5-0.7-5.2-0.7C3839.2,981.4,3831.8,986.7,3829.4,994.9 M1877.3,938.7v175.2
				c0,49.7,28.3,75.4,75.3,75.4c21.5,0,36.9-6,51.6-13.9l-13.9-47.5c-7.9,4.5-19.2,7.5-27.5,7.5c-15.8,0-25.2-7.9-25.2-27.5v-65.6
				h55.8v-47.8h-55.8v-55.8H1877.3z M1414.8,1091.5c0-39.6,30.5-64.4,61.7-64.4c34.2,0,61.7,24.8,61.7,64.4c0,39.2-27.5,64-61.7,64
				C1445.3,1155.6,1414.8,1130.7,1414.8,1091.5 M1389.3,932.6V1174h25.5v-26.2c14.8,19.4,38.2,30.5,65.7,30.5
				c43.9,0,82.5-34.5,82.5-86.8s-38.6-86.8-82.5-86.8c-27.5,0-51,11.1-65.7,30.5V932.6H1389.3z M3828.4,1034.9
				c-19.2-5.6-30.3-25.6-24.7-44.8c5.6-19.2,25.6-30.3,44.8-24.7s30.3,25.6,24.7,44.8c-4.6,15.8-19.1,26.2-34.8,26.2
				C3835.1,1036.3,3831.7,1035.8,3828.4,1034.9 M3702.7,914.5c-49.9,0-98.3,7.6-136.4,24.7c-32.2,14.4-59,41.1-69.5,77.6
				c-18.4,63.7,18.3,130.3,82,148.8c40.4,11.7,81.7,1.6,111.5-24.2c38.3-33,68.9-69.2,148.2-76.2c31.8-2.8,52.4-19.6,60.3-47.1
				c0.9-3.2,1.6-6.3,2-9.4c0.1-0.4,0.1-0.9,0.1-1.3c-0.1,0.4,0,0.9-0.1,1.3c0.2,0,0.4,0,0.6-0.1c5.6-0.3,11.4-0.7,17.3-0.8
				c5.9-0.2,11.9-0.3,17.9-0.3c6,0.1,12,0.1,18,0.4c5.9,0.2,11.8,0.6,17.4,1c5.7,0.5,11.1,0.9,16.3,1.4c5.2,0.5,10.1,1.1,14.6,1.7
				c9.1,1.1,16.6,2.3,21.9,3.1c5.3,0.9,8.3,1.3,8.3,1.3h0.2c5,0.8,9.9-2.3,11-7.3c1.1-4.9-1.9-9.9-6.9-11.3
				c-0.2-0.1-0.4-0.1-0.6-0.2c0,0-3.1-0.7-8.4-1.9c-5.4-1.2-13-2.9-22.3-4.6c-4.6-0.9-9.7-1.8-15-2.7c-5.3-0.9-11-1.7-16.9-2.5
				c-5.9-0.7-11.9-1.5-18.1-2.1c-6.2-0.7-12.5-1.1-18.8-1.6c-6.3-0.4-12.7-0.7-18.9-0.9c-6.2-0.2-12.4-0.2-18.3-0.2
				c-0.4,0-0.9,0-1.3,0c-6.1-20.1-22.3-37-45.7-44.3C3807.6,922.6,3754.3,914.5,3702.7,914.5L3702.7,914.5 M2449,1089
				c0-29,19.2-49,45.6-49c24.5,0,46.3,20,46.3,49c0,29.4-21.9,49-46.3,49C2468.2,1138,2449,1118.4,2449,1089 M2540.9,912.3v97.2
				c-14.7-13.2-34.3-20.7-58.8-20.7c-50.1,0-92.3,40.7-92.3,100.2c0,59.9,42.2,100.2,92.3,100.2c24.5,0,44.1-7.5,58.8-20.7v15.1
				h60.3V912.3H2540.9z M3849.5,899c-2.5,0.3-4.5,0.6-6.1,0.9c-1.2,0.2-2.1,0.5-2.9,0.7c-0.3,0.1-0.6,0.2-0.9,0.2l-1.3,0.3
				c-1.4,0.4-2.2,1.8-1.9,3.2c0.1,0.7,0.6,1.3,1.2,1.7c0.6,0.4,1.3,0.5,2.1,0.4l1.3-0.3c0.3,0,0.6-0.1,0.9-0.2
				c0.7-0.2,1.6-0.4,2.7-0.5c1.4-0.2,3.2-0.4,5.4-0.5c2.4-0.1,4.8,0,7.1,0.1c3,0.3,5.8,0.7,8.3,1.3c2.7,0.6,5.6,1.5,9,2.8
				c2.5,1.1,5.9,2.5,9,4.4c3.5,2.1,6.1,4,8.3,6c5.1,4.4,9.3,9.9,11.9,15.5c1.4,3.3,2.2,5.9,2.7,8.3c0.5,2.6,0.7,5.2,0.6,7.7
				c-0.1,2.2-0.4,4.4-0.9,6.5c-0.4,1.9-0.9,3.5-1.4,4.9c-0.3,0.8-0.6,1.6-0.9,2.2c-0.2,0.3-0.3,0.6-0.4,0.9l-0.6,1.5l-0.1,0.2
				c0,0.1,0,0.1,0,0.1c-0.1,0.3-0.2,0.5-0.2,0.9c0,0.1,0,0.1,0,0.1c-0.1,0.4-0.1,0.7-0.1,1.2c0,0.6,0.1,1.1,0.2,1.5
				c0.8,2.5,3.1,4.1,5.6,4.1c0.6,0,1.3-0.1,1.8-0.3c46.5-14.4,35.7-63.6,9.2-75.1c-1.2-0.5-2.4-0.2-3.1,0.8
				c-0.7,1.1-0.5,2.5,0.7,3.2c21.2,12.7,25.3,45.2,0.1,56.8c0.1-0.3,0.1-0.7,0.2-1c0.5-2.8,0.7-5.6,0.7-8.5c0-3.3-0.5-6.7-1.3-10
				c-0.7-3.1-2-6.5-3.9-10.4c-3.5-6.7-8.7-12.9-15.1-17.8c-2.7-2.1-5.8-4.2-9.8-6.4c-3.7-2-7.5-3.4-10.3-4.4
				c-3.8-1.2-7.1-2.1-10.1-2.6c-2.9-0.5-6-0.8-9.3-1c-0.5,0-1,0-1.5,0C3853.8,898.7,3851.7,898.8,3849.5,899"/>
		</defs>
		<clipPath id="SVGID_2_">
			<use xlink:href="#SVGID_1_"  style="overflow:visible;"/>
		</clipPath>
		<rect x="1361.4" y="870.8" class="st1" width="2711.1" height="388.1"/>
	</g>
</g>
<g>
	<g class="st2">
		<g>
			<g>
				<defs>
					<line id="SVGID_3_" x1="573.5" y1="582.5" x2="573.5" y2="18.3"/>
				</defs>
				<clipPath id="SVGID_4_">
					<use xlink:href="#SVGID_3_"  style="overflow:visible;"/>
				</clipPath>
				<path class="st3" d="M573.5,299.8"/>
			</g>
		</g>
	</g>
	<g>
		<g>
			<g>
				<linearGradient id="SVGID_5_" gradientUnits="userSpaceOnUse" x1="1274.5635" y1="-538.9001" x2="1274.5635" y2="-538.9001" gradientTransform="matrix(-160.3134 277.6709 277.6709 160.3134 354605.0625 -267145.7812)">
					<stop  offset="0" style="stop-color:#FFFFFF"/>
					<stop  offset="0.1211" style="stop-color:#FAF9FB"/>
					<stop  offset="0.2683" style="stop-color:#E9E9ED"/>
					<stop  offset="0.4291" style="stop-color:#CFCED6"/>
					<stop  offset="0.5996" style="stop-color:#ADADB9"/>
					<stop  offset="0.7777" style="stop-color:#838596"/>
					<stop  offset="0.9597" style="stop-color:#545D72"/>
					<stop  offset="1" style="stop-color:#4A556A"/>
				</linearGradient>
				<path class="st4" d="M638.6,370.5"/>
				<linearGradient id="SVGID_6_" gradientUnits="userSpaceOnUse" x1="1275.8247" y1="-538.9001" x2="1275.8247" y2="-538.9001" gradientTransform="matrix(-160.3134 277.6709 277.6709 160.3134 354605.0625 -267145.7812)">
					<stop  offset="0" style="stop-color:#FFFFFF"/>
					<stop  offset="0.1211" style="stop-color:#FAF9FB"/>
					<stop  offset="0.2683" style="stop-color:#E9E9ED"/>
					<stop  offset="0.4291" style="stop-color:#CFCED6"/>
					<stop  offset="0.5996" style="stop-color:#ADADB9"/>
					<stop  offset="0.7777" style="stop-color:#838596"/>
					<stop  offset="0.9597" style="stop-color:#545D72"/>
					<stop  offset="1" style="stop-color:#4A556A"/>
				</linearGradient>
				<path class="st5" d="M436.4,720.7"/>
			</g>
		</g>
	</g>
	<g>
		<g>
			<g>
				<linearGradient id="SVGID_7_" gradientUnits="userSpaceOnUse" x1="1277.7723" y1="-529.4939" x2="1277.7723" y2="-529.4939" gradientTransform="matrix(-160.2533 -277.5669 -277.5669 160.2533 57665.4492 439727.9375)">
					<stop  offset="0" style="stop-color:#FFFFFF"/>
					<stop  offset="0.2426" style="stop-color:#FBFBFB"/>
					<stop  offset="0.5372" style="stop-color:#EEEDEE"/>
					<stop  offset="0.8576" style="stop-color:#D9D8D8"/>
					<stop  offset="1" style="stop-color:#CECCCC"/>
				</linearGradient>
				<path class="st6" d="M-131.8,207.5"/>
			</g>
		</g>
	</g>
</g>
<g>
	<path class="st13" d="M518,203.4L518,203.4l-321.2-185L27.7,115.5V487l169.1,97.6l321.2-186c33.8-19.4,56.5-55.9,56.5-97.7 C574.6,259.2,551.8,222.7,518,203.4 M196.8,389.1v-176L349,301L196.8,389.1z"/>
	<g>
		<g>
			<g>
				<defs>
					<rect id="SVGID_8_" x="196.8" y="301" width="320.3" height="283.6"/>
				</defs>
				<clipPath id="SVGID_9_">
					<use xlink:href="#SVGID_8_" style="overflow:visible;"/>
				</clipPath>
				<g class="st7">
					<g>
						<defs>
							<polygon id="SVGID_10_" points="348.9,301 196.8,389.1 196.8,584.6 517.1,399.1 349,301"/>
						</defs>
						<clipPath id="SVGID_11_">
							<use xlink:href="#SVGID_10_" style="overflow:visible;"/>
						</clipPath>
						<linearGradient id="SVGID_12_" gradientUnits="userSpaceOnUse" x1="3433.7031" y1="0.1805" x2="3441.1472" y2="0.1805" gradientTransform="matrix(-21.6094 37.4286 37.4286 21.6094 74609.875 -128182.8203)">
							<stop offset="0" style="stop-color:#ccd130"/>
							<stop offset="0.2451" style="stop-color:#c9cf30"/>
							<stop offset="0.5428" style="stop-color:#b8c034"/>
							<stop offset="0.8665" style="stop-color:#9ea939"/>
							<stop offset="1" style="stop-color:#828f38"/>
						</linearGradient>
						<polygon class="st8" points="276.8,162.3 73.9,513.7 437,723.3 639.9,371.9"/>
					</g>
				</g>
			</g>
			<g>
				<g>
					<g>
						<defs>
							<rect id="SVGID_13_" x="27.7" y="115.5" width="169.1" height="371.4"/>
						</defs>
						<clipPath id="SVGID_14_">
							<use xlink:href="#SVGID_13_"  style="overflow:visible;"/>
						</clipPath>
						<g class="st9">
							<g>
								<defs>
									<polygon id="SVGID_15_" points="27.7,486.9 27.7,486.9 196.8,389.3 196.8,213.1 27.7,115.5"/>
								</defs>
								<clipPath id="SVGID_16_">
									<use xlink:href="#SVGID_15_"  style="overflow:visible;"/>
								</clipPath>
								<linearGradient id="SVGID_17_" gradientUnits="userSpaceOnUse" x1="3460.0808" y1="133.8442" x2="3467.5249" y2="133.8442" gradientTransform="matrix(-21.6013 -37.4146 -37.4146 21.6013 79921.5469 126970.2422)">
									<stop offset="0" style="stop-color:#ccd130"/>
									<stop offset="0.2451" style="stop-color:#c9cf30"/>
									<stop offset="0.5428" style="stop-color:#b8c034"/>
									<stop offset="0.8665" style="stop-color:#9ea939"/>
									<stop offset="1" style="stop-color:#828f38"/>
								</linearGradient>
								<polygon class="st10" points="357.6,394 154.5,42.3 -133.1,208.3 70,560.1"/>
							</g>
						</g>
					</g>
					<g>
						<g>
							<g>
								<defs>
									<rect id="SVGID_18_" x="196.8" y="18.4" width="321" height="282.5"/>
								</defs>
								<clipPath id="SVGID_19_">
									<use xlink:href="#SVGID_18_"  style="overflow:visible;"/>
								</clipPath>
								<g class="st11">
									<g>
										<defs>
											<polygon id="SVGID_20_" points="196.8,213.1 348.9,301 517.8,203.3 196.8,18.4"/>
										</defs>
										<clipPath id="SVGID_21_">
											<use xlink:href="#SVGID_20_"  style="overflow:visible;"/>
										</clipPath>
										<linearGradient id="SVGID_22_" gradientUnits="userSpaceOnUse" x1="3330.0115" y1="89.8726" x2="3337.4546" y2="89.8726" gradientTransform="matrix(43.1273 0 0 -43.1273 -143417.6094 4035.6045)">
											<stop offset="0" style="stop-color:#ccd130"/>
											<stop offset="0.2451" style="stop-color:#c9cf30"/>
											<stop offset="0.5428" style="stop-color:#b8c034"/>
											<stop offset="0.8665" style="stop-color:#9ea939"/>
											<stop offset="1" style="stop-color:#828f38"/>
										</linearGradient>
										<rect x="196.8" y="18.4" class="st12" width="321" height="282.5"/>
									</g>
								</g>
							</g>
						</g>
					</g>
				</g>
			</g>
		</g>
	</g>
</g>
</svg>
